<svg id="visual" viewBox="0 0 960 540" width="960" height="540" xmlns="http://www.w3.org/2000/svg" xmlns:xlink="http://www.w3.org/1999/xlink" version="1.1"><rect width="960" height="540" fill="#0F172B"></rect><g><g transform="translate(273 125)"><path d="M0 -104.1L90.1 -52L90.1 52L0 104.1L-90.1 52L-90.1 -52Z" fill="none" stroke="#297EA6" stroke-width="2"></path></g><g transform="translate(602 248)"><path d="M0 -13L11.3 -6.5L11.3 6.5L0 13L-11.3 6.5L-11.3 -6.5Z" fill="none" stroke="#297EA6" stroke-width="2"></path></g><g transform="translate(6 378)"><path d="M0 -63L54.6 -31.5L54.6 31.5L0 63L-54.6 31.5L-54.6 -31.5Z" stroke="#297EA6" fill="none" stroke-width="2"></path></g><g transform="translate(212 482)"><path d="M0 -42L36.4 -21L36.4 21L0 42L-36.4 21L-36.4 -21Z" stroke="#297EA6" fill="none" stroke-width="2"></path></g><g transform="translate(650 529)"><path d="M0 -81L70.1 -40.5L70.1 40.5L0 81L-70.1 40.5L-70.1 -40.5Z" stroke="#297EA6" fill="none" stroke-width="2"></path></g><g transform="translate(922 225)"><path d="M0 -60L52 -30L52 30L0 60L-52 30L-52 -30Z" stroke="#297EA6" fill="none" stroke-width="2"></path></g></g></svg>